<?xml version="1.0" standalone="no"?>
<!DOCTYPE svg PUBLIC "-//W3C//DTD SVG 20010904//EN" "http://www.w3.org/TR/2001/REC-SVG-20010904/DTD/svg10.dtd">
<!-- Created using Karbon, part of Calligra: http://www.calligra.org/karbon -->
<svg xmlns="http://www.w3.org/2000/svg" xmlns:xlink="http://www.w3.org/1999/xlink" width="38.4pt" height="38.4pt">
<defs>
  <linearGradient id="gradient0" gradientTransform="translate(5.32907e-14, -1005.36)" gradientUnits="objectBoundingBox" x1="0.50000000000" y1="21.85569565217" x2="0.50000000000" y2="22.85569565217" spreadMethod="pad">
   <stop stop-color="#bada55" offset="0.00000000000" stop-opacity="1.00000000000"/>
   <stop stop-color="#758d29" offset="1.00000000000" stop-opacity="1.00000000000"/>
  </linearGradient>
  <linearGradient id="gradient1" gradientTransform="matrix(0 -1.0719 1.06862 0 -1077.64 46.526)" gradientUnits="objectBoundingBox" x1="0.61965088622" y1="26.00948927949" x2="0.61965088622" y2="27.00642335048" spreadMethod="pad">
   <stop stop-color="#000000" offset="0.00000000000" stop-opacity="1.00000000000"/>
   <stop stop-color="#aaaaaa" offset="1.00000000000" stop-opacity="1.00000000000"/>
  </linearGradient>
  <linearGradient id="gradient2" gradientTransform="matrix(0 -0.970849 0.96788 0 -977.347 42.4701)" gradientUnits="objectBoundingBox" x1="0.61965088622" y1="26.00948927949" x2="0.61965088622" y2="27.00642335048" spreadMethod="pad">
   <stop stop-color="#ffffff" offset="0.00000000000" stop-opacity="1.00000000000"/>
   <stop stop-color="#bababa" offset="1.00000000000" stop-opacity="1.00000000000"/>
  </linearGradient>
 </defs>
<g id="layer1">
  <g id="g4136" transform="translate(-6.02504, -5.975)" fill="none" display="none">
   <path id="rect4749-1" transform="matrix(0 -1 -1 0 54 54)" fill="#f0f0f0" stroke="#f5f5f5" stroke-width="2.00000000000" stroke-linecap="round" stroke-linejoin="miter" stroke-miterlimit="4.00000000000" opacity="0.81000000000" d="M0 0L0 1L45 1C46.108 1 47 1.892 47 3L47 45C47 46.108 46.108 47 45 47L0 47L0 48L46 48C47.108 48 48 47.108 48 46L48 2C48 0.892 47.108 0 46 0Z"/>
   <path id="rect4749-48" transform="matrix(0 -1 -1 0 53.0002 54)" fill="url(#gradient0)" stroke="#f5f5f5" stroke-width="2.00000000000" stroke-linecap="round" stroke-linejoin="miter" stroke-miterlimit="4.00000000000" opacity="0.90000000000" d="M45 0C46.108 0 47 0.892 47 2L47 44C47 45.108 46.108 46 45 46L0 46L0 0Z"/>
  </g>
  <path id="shape0" transform="matrix(0 1 -1 0 47.7662 0.544003)" fill="#000000" stroke="#646464" stroke-width="1.00000000000" stroke-linecap="butt" stroke-linejoin="miter" stroke-miterlimit="2.00000000000" display="none" opacity="0.00000000000" d="M0.001 0C0.001 0 0.001 2.623 0.001 6.633C0.001 19.625 0 47.168 0 47.168"/>
  <path id="shape1" transform="matrix(0 1 -1 0 47.7802 1.39)" fill="#000000" stroke="#f5f4f4" stroke-width="1.00000000000" stroke-linecap="butt" stroke-linejoin="miter" stroke-miterlimit="2.00000000000" display="none" d="M0.001 0L0 47.219"/>
  <path id="shape2" transform="matrix(0 1 -1 0 1052.34 0.025003)" fill="#d8d8d8" stroke="#000000" stroke-width="1.25000000000" stroke-linecap="butt" stroke-linejoin="miter" stroke-miterlimit="2.00000000000" display="none" d=""/>
  <path id="shape3" transform="matrix(0 1 -1 0 47.4467 0.57683)" fill="#000000" stroke="#000000" stroke-width="1.25000000000" stroke-linecap="butt" stroke-linejoin="miter" stroke-miterlimit="2.00000000000" opacity="0.02000000000" d="M47.3722 0.0395556C47.3722 0.0395556 8.90717 -0.0494444 4.47517 0.0395556C-0.692827 0.143556 0.0351733 4.69856 0.0351733 4.69856L0.0351733 42.3476C0.0351733 42.3476 -0.587827 46.8666 4.25917 47.0066C7.56517 47.1016 47.4462 46.9326 47.4462 46.9326"/>
  <path id="shape4" transform="matrix(0 1 -1 0 46.7064 1.29222)" fill="#000000" stroke="#000000" stroke-width="1.25000000000" stroke-linecap="butt" stroke-linejoin="miter" stroke-miterlimit="2.00000000000" opacity="0.05000000000" d="M46.7518 0.0382222C46.7518 0.0382222 8.78978 -0.0477778 4.41578 0.0382222C-0.684218 0.138222 0.0347822 4.53022 0.0347822 4.53022L0.0347822 40.8272C0.0347822 40.8272 -0.580218 45.1832 4.20278 45.3182C7.46578 45.4102 46.8238 45.2462 46.8238 45.2462"/>
  <path id="shape5" transform="matrix(0 1 -1 0 45.862 2.315)" fill="#000000" stroke="#000000" stroke-width="1.25000000000" stroke-linecap="butt" stroke-linejoin="miter" stroke-miterlimit="2.00000000000" opacity="0.05000000000" d="M45.598 0.0368889C45.598 0.0368889 8.57301 -0.0461111 4.30701 0.0368889C-0.667993 0.132889 0.0340068 4.36989 0.0340068 4.36989L0.0340068 39.3869C0.0340068 39.3869 -0.565993 43.5889 4.09901 43.7189C7.28101 43.8079 45.668 43.6499 45.668 43.6499"/>
  <path id="shape6" transform="matrix(0 1 -1 0 44.9733 3.2477)" fill="#000000" stroke="#000000" stroke-width="1.25000000000" stroke-linecap="butt" stroke-linejoin="miter" stroke-miterlimit="2.00000000000" opacity="0.05000000000" d="M44.7103 0.0351111C44.7103 0.0351111 8.40631 -0.0438889 4.22331 0.0351111C-0.654695 0.127111 0.033305 4.20111 0.033305 4.20111L0.033305 37.8661C0.033305 37.8661 -0.554695 41.9061 4.01931 42.0321C7.13931 42.1161 44.7793 41.9641 44.7793 41.9641"/>
  <path id="shape7" transform="matrix(0 1 -1 0 44.0405 4.22543)" fill="#000000" stroke="#000000" stroke-width="1.25000000000" stroke-linecap="butt" stroke-linejoin="miter" stroke-miterlimit="2.00000000000" opacity="0.05000000000" d="M43.7346 0.0333333C43.7346 0.0333333 8.22258 -0.0416667 4.13158 0.0333333C-0.640425 0.122333 0.0325751 4.03233 0.0325751 4.03233L0.0325751 36.3453C0.0325751 36.3453 -0.542425 40.2233 3.93158 40.3443C6.98358 40.4253 43.8016 40.2783 43.8016 40.2783"/>
  <path id="shape8" transform="matrix(0 1 -1 0 43.1957 5.15913)" fill="#000000" stroke="#000000" stroke-width="1.25000000000" stroke-linecap="butt" stroke-linejoin="miter" stroke-miterlimit="2.00000000000" opacity="0.50000000000" d="M42.8469 0.0315556C42.8469 0.0315556 8.05587 -0.0394444 4.04787 0.0315556C-0.627127 0.117556 0.0318733 3.86356 0.0318733 3.86356L0.0318733 34.8246C0.0318733 34.8246 -0.531127 38.5406 3.85187 38.6566C6.84187 38.7346 42.9129 38.5926 42.9129 38.5926"/>
  <path id="shape9" transform="matrix(0 1 -1 0 43.2847 5.10813)" fill="url(#gradient1)" stroke="url(#gradient2)" stroke-width="1.25000000000" stroke-linecap="butt" stroke-linejoin="miter" stroke-miterlimit="2.00000000000" opacity="0.97000000000" d="M42.8081 0.0314117C42.8081 0.0314117 8.04859 -0.0392647 4.04422 0.0314117C-0.62656 0.118015 0.0318445 3.85789 0.0318445 3.85789L0.0318445 34.7723C0.0318445 34.7723 -0.530647 38.4834 3.84839 38.5988C6.83569 38.6765 42.8741 38.5351 42.8741 38.5351"/>
 </g>
</svg>
