<?xml version="1.0" encoding="utf-8"?>
<svg width="32" height="84" viewBox="0 0 32 84" id="svg5386" version="1.1" xmlns="http://www.w3.org/2000/svg">
  <g id="layer1" transform="translate(0,-968.3622)" style="opacity:0.951">
    <rect style="display: inline; opacity: 0.64; fill: none; fill-opacity: 1; stroke-width: 1; stroke-linecap: round; stroke-linejoin: miter; stroke-miterlimit: 4; stroke-dasharray: none; stroke-dashoffset: 0; stroke-opacity: 1; stroke: rgb(136, 136, 136);" id="rect4164-4-3" width="23" height="73.999352" x="4.5" y="972.86285" rx="2.0000005" ry="1.9999999"/>
    <rect style="display: inline; opacity: 1; fill-opacity: 1; stroke: none; stroke-width: 1; stroke-linecap: round; stroke-linejoin: miter; stroke-miterlimit: 4; stroke-dasharray: none; stroke-dashoffset: 0; stroke-opacity: 1; fill: rgb(245, 245, 245);" id="rect4164" width="22" height="20.999971" x="5" y="973.36285" rx="1.4" ry="0.78232443" clip-path="url(#clipPath4154)" transform="matrix(1,0,0,1.7895388,0,-768.50844)"/>
    <g transform="translate(-425.99995,606.36226)" id="g4271" style="display:inline;opacity:0.64999999">
      <rect ry="8" rx="8" y="362.49994" x="426.49994" height="83" width="31.000011" id="rect4164-4-7-5-3-8-8" style="display:inline;opacity:0.02;fill:none;fill-opacity:1;stroke:#000000;stroke-width:0.99999988;stroke-linecap:round;stroke-linejoin:miter;stroke-miterlimit:4;stroke-dasharray:none;stroke-dashoffset:0;stroke-opacity:1"/>
      <rect ry="6.9999981" rx="7" y="363.49997" x="427.49994" height="80.999969" width="29.000011" id="rect4164-4-7-5-3-8" style="display:inline;opacity:0.07;fill:none;fill-opacity:1;stroke:#000000;stroke-width:0.99999982;stroke-linecap:round;stroke-linejoin:miter;stroke-miterlimit:4;stroke-dasharray:none;stroke-dashoffset:0;stroke-opacity:1"/>
      <rect ry="6.0000005" rx="6" y="364.49997" x="428.49994" height="79" width="27.000011" id="rect4164-4-7-5-3" style="display:inline;opacity:0.13;fill:none;fill-opacity:1;stroke:#000000;stroke-width:0.99999988;stroke-linecap:round;stroke-linejoin:miter;stroke-miterlimit:4;stroke-dasharray:none;stroke-dashoffset:0;stroke-opacity:1"/>
      <rect ry="5" rx="4.9999995" y="365.49997" x="429.49997" height="76.999969" width="24.999981" id="rect4164-4-7-5" style="display:inline;opacity:0.2;fill:none;fill-opacity:1;stroke:#000000;stroke-width:1;stroke-linecap:round;stroke-linejoin:miter;stroke-miterlimit:4;stroke-dasharray:none;stroke-dashoffset:0;stroke-opacity:1"/>
      <path id="rect4164-4-7" d="m 431.64838,440.30463 c 0.72475,0.73691 1.73153,1.19531 2.85156,1.19531 l 15.00023,0 c 1.12003,0 2.12681,-0.4584 2.85156,-1.19531 -0.2591,0.12217 -0.5451,0.19531 -0.85156,0.19531 l -19.00023,0 c -0.30646,0 -0.59246,-0.0731 -0.85156,-0.19531 z" style="display:inline;opacity:0.25;fill:none;fill-opacity:1;stroke:#000000;stroke-width:1;stroke-linecap:round;stroke-linejoin:miter;stroke-miterlimit:4;stroke-dasharray:none;stroke-dashoffset:0;stroke-opacity:1"/>
    </g>
  </g>
</svg>